<?xml version="1.0" encoding="UTF-8"?>
<svg id="Layer_1" data-name="Layer 1" xmlns="http://www.w3.org/2000/svg" viewBox="0 0 665 139.46">
  <defs>
    <style>
      .cls-1 {
        fill: none;
      }

      .cls-1, .cls-2, .cls-3, .cls-4, .cls-5, .cls-6 {
        stroke-width: 0px;
      }

      .cls-7 {
        isolation: isolate;
      }

      .cls-2 {
        fill: #4285f4;
      }

      .cls-3 {
        fill: #0f9d58;
      }

      .cls-4 {
        fill: #fff;
      }

      .cls-5 {
        fill: #fbbc04;
      }

      .cls-6 {
        fill: #ea4335;
      }
    </style>
  </defs>
  <rect class="cls-1" width="665" height="139.46"/>
  <path class="cls-5" d="m213.97,54.53c9.47-5.47,21.59-2.22,27.07,7.25,1.98,3.43-1.98-3.43,0,0,5.47,9.48,2.22,21.6-7.26,27.07-16.93,9.78-50.57,29.2-67.5,38.97-9.48,5.47-21.6,2.22-27.07-7.25-1.98-3.43,1.98,3.43,0,0-5.47-9.48-2.22-21.6,7.25-27.07,16.93-9.78,50.57-29.2,67.5-38.97Z"/>
  <path class="cls-1" d="m213.97,54.53c9.47-5.47,21.59-2.22,27.07,7.25,1.98,3.43-1.98-3.43,0,0,5.47,9.48,2.22,21.6-7.26,27.07-16.93,9.78-50.57,29.2-67.5,38.97-9.48,5.47-21.6,2.22-27.07-7.25-1.98-3.43,1.98,3.43,0,0-5.47-9.48-2.22-21.6,7.25-27.07,16.93-9.78,50.57-29.2,67.5-38.97Z"/>
  <path class="cls-3" d="m234.09,54.71c9.48,5.47,12.73,17.59,7.26,27.07-1.98,3.43,1.98-3.43,0,0-5.47,9.48-17.6,12.73-27.07,7.25-16.93-9.78-50.57-29.2-67.5-38.97-9.48-5.47-12.72-17.59-7.25-27.07,1.98-3.43-1.98,3.43,0,0,5.47-9.48,17.59-12.72,27.07-7.25,16.93,9.78,50.57,29.2,67.5,38.97Z"/>
  <path class="cls-1" d="m234.09,54.71c9.48,5.47,12.73,17.59,7.26,27.07-1.98,3.43,1.98-3.43,0,0-5.47,9.48-17.6,12.73-27.07,7.25-16.93-9.78-50.57-29.2-67.5-38.97-9.48-5.47-12.72-17.59-7.25-27.07,1.98-3.43-1.98,3.43,0,0,5.47-9.48,17.59-12.72,27.07-7.25,16.93,9.78,50.57,29.2,67.5,38.97Z"/>
  <path class="cls-6" d="m77.41,15.23c9.48-5.47,21.6-2.22,27.07,7.26,1.98,3.43-1.98-3.43,0,0,5.47,9.48,2.23,21.6-7.25,27.07-16.93,9.78-50.57,29.2-67.5,38.97-9.48,5.47-21.6,2.23-27.07-7.25-1.98-3.43,1.98,3.43,0,0-5.48-9.48-2.23-21.6,7.25-27.07,16.93-9.78,50.57-29.2,67.5-38.98Z"/>
  <path class="cls-1" d="m77.41,15.23c9.48-5.47,21.6-2.22,27.07,7.26,1.98,3.43-1.98-3.43,0,0,5.47,9.48,2.23,21.6-7.25,27.07-16.93,9.78-50.57,29.2-67.5,38.97-9.48,5.47-21.6,2.23-27.07-7.25-1.98-3.43,1.98,3.43,0,0-5.48-9.48-2.23-21.6,7.25-27.07,16.93-9.78,50.57-29.2,67.5-38.98Z"/>
  <path class="cls-2" d="m97.23,93.2c9.48,5.48,12.72,17.59,7.25,27.07-1.98,3.43,1.98-3.43,0,0-5.47,9.48-17.59,12.73-27.07,7.26-16.93-9.78-50.57-29.2-67.5-38.98C.43,83.08-2.82,70.96,2.66,61.48c1.98-3.43-1.98,3.43,0,0,5.47-9.48,17.59-12.72,27.07-7.25,16.93,9.78,50.57,29.2,67.5,38.97Z"/>
  <path class="cls-1" d="m97.23,93.2c9.48,5.48,12.72,17.59,7.25,27.07-1.98,3.43,1.98-3.43,0,0-5.47,9.48-17.59,12.73-27.07,7.26-16.93-9.78-50.57-29.2-67.5-38.98C.43,83.08-2.82,70.96,2.66,61.48c1.98-3.43-1.98,3.43,0,0,5.47-9.48,17.59-12.72,27.07-7.25,16.93,9.78,50.57,29.2,67.5,38.97Z"/>
  <g class="cls-7">
    <path class="cls-4" d="m310.02,48.87c-1.35,1.93-3.23,3.38-5.65,4.33-2.42.96-5.23,1.44-8.44,1.44s-6.12-.76-8.64-2.28c-2.52-1.52-4.46-3.69-5.84-6.49-1.38-2.81-2.08-6.06-2.12-9.76v-3.47c0-6,1.4-10.65,4.2-13.95,2.8-3.3,6.73-4.95,11.8-4.95,4.16,0,7.5,1.06,10.04,3.19,2.53,2.12,4.08,5.14,4.65,9.04h-5.25c-.98-5.29-4.12-7.93-9.41-7.93-3.52,0-6.18,1.24-8,3.71-1.81,2.47-2.73,6.05-2.75,10.74v3.26c0,4.47,1.02,8.02,3.06,10.66,2.04,2.64,4.8,3.96,8.29,3.96,1.97,0,3.69-.22,5.17-.65s2.7-1.17,3.66-2.21v-8.92h-9.21v-4.29h14.44v14.6Z"/>
    <path class="cls-4" d="m318.77,54.1V14.28h11.24c3.46,0,6.53.77,9.19,2.3,2.66,1.53,4.72,3.71,6.17,6.54,1.45,2.83,2.18,6.07,2.2,9.73v2.54c0,3.76-.72,7.05-2.17,9.87-1.45,2.83-3.52,5-6.21,6.51-2.69,1.51-5.82,2.29-9.39,2.32h-11.02Zm5.25-35.52v31.23h5.52c4.05,0,7.2-1.26,9.45-3.78,2.25-2.52,3.38-6.1,3.38-10.76v-2.33c0-4.52-1.06-8.04-3.19-10.55-2.12-2.51-5.14-3.78-9.04-3.82h-6.12Z"/>
    <path class="cls-4" d="m384.88,48.87c-1.35,1.93-3.23,3.38-5.65,4.33-2.42.96-5.23,1.44-8.44,1.44s-6.12-.76-8.64-2.28c-2.52-1.52-4.46-3.69-5.84-6.49-1.38-2.81-2.08-6.06-2.12-9.76v-3.47c0-6,1.4-10.65,4.2-13.95,2.8-3.3,6.73-4.95,11.8-4.95,4.16,0,7.5,1.06,10.04,3.19,2.53,2.12,4.08,5.14,4.65,9.04h-5.25c-.98-5.29-4.12-7.93-9.41-7.93-3.52,0-6.18,1.24-8,3.71-1.81,2.47-2.73,6.05-2.75,10.74v3.26c0,4.47,1.02,8.02,3.06,10.66,2.04,2.64,4.8,3.96,8.29,3.96,1.97,0,3.69-.22,5.17-.65s2.7-1.17,3.66-2.21v-8.92h-9.21v-4.29h14.44v14.6Z"/>
    <path class="cls-4" d="m407.5,54.1V14.28h11.24c3.46,0,6.53.77,9.19,2.3,2.66,1.53,4.72,3.71,6.17,6.54,1.45,2.83,2.18,6.07,2.2,9.73v2.54c0,3.76-.72,7.05-2.17,9.87-1.45,2.83-3.52,5-6.21,6.51-2.69,1.51-5.82,2.29-9.39,2.32h-11.02Zm5.25-35.52v31.23h5.52c4.05,0,7.2-1.26,9.45-3.78,2.25-2.52,3.38-6.1,3.38-10.76v-2.33c0-4.52-1.06-8.04-3.19-10.55-2.12-2.51-5.14-3.78-9.04-3.82h-6.12Z"/>
    <path class="cls-4" d="m455.7,54.64c-4.01,0-7.27-1.32-9.79-3.95-2.52-2.63-3.77-6.16-3.77-10.57v-.93c0-2.93.56-5.55,1.68-7.86,1.12-2.31,2.69-4.11,4.7-5.41,2.01-1.3,4.2-1.96,6.55-1.96,3.85,0,6.84,1.27,8.97,3.8,2.13,2.53,3.2,6.16,3.2,10.88v2.11h-20.04c.07,2.92.92,5.27,2.56,7.07,1.63,1.8,3.71,2.69,6.22,2.69,1.79,0,3.3-.36,4.54-1.09,1.24-.73,2.32-1.7,3.25-2.9l3.09,2.41c-2.48,3.81-6.2,5.71-11.16,5.71Zm-.63-26.52c-2.04,0-3.76.74-5.14,2.23-1.39,1.49-2.24,3.57-2.57,6.25h14.82v-.38c-.15-2.57-.84-4.56-2.08-5.97-1.24-1.41-2.92-2.12-5.03-2.12Z"/>
    <path class="cls-4" d="m482.5,47.23l7.33-22.72h5.17l-10.61,29.59h-3.86l-10.72-29.59h5.17l7.52,22.72Z"/>
    <path class="cls-4" d="m502.71,54.1v-25.68h-4.68v-3.91h4.68v-3.04c0-3.17.85-5.62,2.54-7.36,1.7-1.73,4.09-2.6,7.19-2.6,1.17,0,2.32.15,3.47.46l-.27,4.08c-.86-.16-1.77-.25-2.73-.25-1.64,0-2.91.48-3.8,1.44-.89.96-1.34,2.34-1.34,4.13v3.13h6.32v3.91h-6.32v25.68h-5.06Z"/>
    <path class="cls-4" d="m531.94,54.64c-4.01,0-7.27-1.32-9.79-3.95-2.52-2.63-3.77-6.16-3.77-10.57v-.93c0-2.93.56-5.55,1.68-7.86,1.12-2.31,2.69-4.11,4.7-5.41,2.01-1.3,4.2-1.96,6.55-1.96,3.85,0,6.84,1.27,8.97,3.8,2.13,2.53,3.2,6.16,3.2,10.88v2.11h-20.04c.07,2.92.92,5.27,2.56,7.07,1.63,1.8,3.71,2.69,6.22,2.69,1.79,0,3.3-.36,4.54-1.09,1.24-.73,2.32-1.7,3.25-2.9l3.09,2.41c-2.48,3.81-6.2,5.71-11.16,5.71Zm-.63-26.52c-2.04,0-3.76.74-5.14,2.23-1.39,1.49-2.24,3.57-2.57,6.25h14.82v-.38c-.15-2.57-.84-4.56-2.08-5.97-1.24-1.41-2.92-2.12-5.03-2.12Z"/>
    <path class="cls-4" d="m566.55,46.25c0-1.37-.52-2.43-1.54-3.19-1.03-.76-2.83-1.41-5.39-1.96-2.56-.55-4.59-1.2-6.1-1.97s-2.62-1.68-3.34-2.73c-.72-1.06-1.08-2.31-1.08-3.77,0-2.42,1.03-4.47,3.08-6.15,2.05-1.68,4.67-2.52,7.86-2.52,3.35,0,6.07.87,8.16,2.6,2.09,1.73,3.13,3.95,3.13,6.64h-5.09c0-1.38-.59-2.58-1.76-3.58-1.18-1-2.66-1.5-4.44-1.5s-3.28.4-4.32,1.2c-1.04.8-1.56,1.85-1.56,3.14,0,1.22.48,2.14,1.45,2.76.97.62,2.71,1.21,5.24,1.78,2.52.57,4.57,1.24,6.14,2.02,1.57.78,2.73,1.73,3.49,2.83.76,1.1,1.13,2.45,1.13,4.03,0,2.64-1.06,4.76-3.17,6.36-2.12,1.6-4.86,2.39-8.23,2.39-2.37,0-4.47-.42-6.29-1.26-1.82-.84-3.25-2.01-4.28-3.51-1.03-1.5-1.54-3.13-1.54-4.88h5.06c.09,1.7.77,3.04,2.04,4.03,1.27.99,2.94,1.49,5.02,1.49,1.91,0,3.45-.39,4.61-1.16,1.16-.77,1.74-1.81,1.74-3.1Z"/>
    <path class="cls-4" d="m585.07,17.35v7.16h5.52v3.91h-5.52v18.37c0,1.19.25,2.08.74,2.67s1.33.89,2.52.89c.58,0,1.38-.11,2.41-.33v4.08c-1.33.36-2.62.54-3.88.54-2.26,0-3.96-.68-5.11-2.05s-1.72-3.31-1.72-5.82v-18.35h-5.39v-3.91h5.39v-7.16h5.06Z"/>
  </g>
  <g class="cls-7">
    <path class="cls-4" d="m292.35,107.58c-4.5-1.29-7.78-2.88-9.83-4.77s-3.08-4.21-3.08-6.99c0-3.13,1.25-5.73,3.76-7.78,2.51-2.05,5.76-3.08,9.78-3.08,2.73,0,5.17.53,7.31,1.59,2.14,1.06,3.8,2.52,4.98,4.38s1.76,3.89,1.76,6.1h-5.28c0-2.42-.77-4.31-2.3-5.69-1.53-1.38-3.69-2.07-6.48-2.07-2.59,0-4.61.57-6.06,1.71-1.45,1.14-2.17,2.72-2.17,4.75,0,1.62.69,3,2.06,4.12,1.38,1.12,3.72,2.15,7.03,3.08,3.31.93,5.9,1.96,7.77,3.08,1.87,1.12,3.25,2.43,4.16,3.92.9,1.5,1.35,3.25,1.35,5.28,0,3.23-1.26,5.81-3.77,7.75s-5.88,2.91-10.09,2.91c-2.73,0-5.29-.52-7.66-1.57-2.37-1.05-4.2-2.48-5.48-4.31-1.29-1.82-1.93-3.89-1.93-6.21h5.28c0,2.41.89,4.31,2.67,5.7s4.15,2.09,7.12,2.09c2.77,0,4.89-.56,6.37-1.7,1.48-1.13,2.21-2.67,2.21-4.62s-.68-3.46-2.05-4.53-3.85-2.12-7.44-3.16Z"/>
    <path class="cls-4" d="m325.33,125.88c-4.01,0-7.27-1.32-9.79-3.95-2.52-2.63-3.77-6.16-3.77-10.57v-.93c0-2.93.56-5.55,1.68-7.86,1.12-2.31,2.69-4.11,4.7-5.41,2.01-1.3,4.2-1.96,6.55-1.96,3.85,0,6.84,1.27,8.97,3.8,2.13,2.53,3.2,6.16,3.2,10.88v2.11h-20.04c.07,2.92.92,5.27,2.56,7.07,1.63,1.8,3.71,2.69,6.22,2.69,1.79,0,3.3-.36,4.54-1.09,1.24-.73,2.32-1.7,3.25-2.9l3.09,2.41c-2.48,3.81-6.2,5.71-11.16,5.71Zm-.63-26.52c-2.04,0-3.76.74-5.14,2.23-1.39,1.49-2.24,3.57-2.57,6.25h14.82v-.38c-.15-2.57-.84-4.56-2.08-5.97-1.24-1.41-2.92-2.12-5.03-2.12Z"/>
    <path class="cls-4" d="m360.98,125.33c-.29-.58-.53-1.62-.71-3.12-2.35,2.44-5.16,3.66-8.42,3.66-2.92,0-5.31-.82-7.18-2.47-1.87-1.65-2.8-3.74-2.8-6.28,0-3.08,1.17-5.47,3.51-7.18,2.34-1.7,5.64-2.56,9.88-2.56h4.92v-2.32c0-1.77-.53-3.18-1.59-4.22-1.06-1.05-2.62-1.57-4.68-1.57-1.8,0-3.32.46-4.54,1.37-1.22.91-1.83,2.01-1.83,3.31h-5.09c0-1.48.52-2.9,1.57-4.28,1.05-1.38,2.47-2.46,4.27-3.27,1.79-.8,3.77-1.2,5.92-1.2,3.41,0,6.08.85,8.01,2.56,1.93,1.71,2.93,4.05,3.01,7.04v13.62c0,2.72.35,4.88,1.04,6.48v.44h-5.3Zm-8.39-3.86c1.59,0,3.09-.41,4.51-1.23s2.45-1.89,3.09-3.2v-6.07h-3.96c-6.2,0-9.3,1.81-9.3,5.44,0,1.59.53,2.83,1.59,3.72,1.06.89,2.42,1.34,4.07,1.34Z"/>
    <path class="cls-4" d="m390.41,117.48c0-1.37-.52-2.43-1.54-3.19-1.03-.76-2.83-1.41-5.39-1.96-2.56-.55-4.59-1.2-6.1-1.97s-2.62-1.68-3.34-2.73c-.72-1.06-1.08-2.31-1.08-3.77,0-2.42,1.03-4.47,3.08-6.15,2.05-1.68,4.67-2.52,7.86-2.52,3.35,0,6.07.87,8.16,2.6,2.09,1.73,3.13,3.95,3.13,6.64h-5.09c0-1.38-.59-2.58-1.76-3.58-1.18-1-2.66-1.5-4.44-1.5s-3.28.4-4.32,1.2c-1.04.8-1.56,1.85-1.56,3.14,0,1.22.48,2.14,1.45,2.76.97.62,2.71,1.21,5.24,1.78,2.52.57,4.57,1.24,6.14,2.02,1.57.78,2.73,1.73,3.49,2.83.76,1.1,1.13,2.45,1.13,4.03,0,2.64-1.06,4.76-3.17,6.36-2.12,1.6-4.86,2.39-8.23,2.39-2.37,0-4.47-.42-6.29-1.26-1.82-.84-3.25-2.01-4.28-3.51-1.03-1.5-1.54-3.13-1.54-4.88h5.06c.09,1.7.77,3.04,2.04,4.03,1.27.99,2.94,1.49,5.02,1.49,1.91,0,3.45-.39,4.61-1.16,1.16-.77,1.74-1.81,1.74-3.1Z"/>
    <path class="cls-4" d="m400.71,110.26c0-2.9.57-5.5,1.71-7.82,1.14-2.31,2.72-4.1,4.76-5.36,2.03-1.26,4.35-1.89,6.96-1.89,4.03,0,7.29,1.39,9.78,4.18s3.73,6.5,3.73,11.13v.36c0,2.88-.55,5.46-1.65,7.75-1.1,2.29-2.68,4.07-4.73,5.35-2.05,1.28-4.41,1.91-7.07,1.91-4.01,0-7.26-1.39-9.75-4.18s-3.73-6.48-3.73-11.07v-.36Zm5.09.6c0,3.28.76,5.92,2.28,7.9,1.52,1.99,3.56,2.98,6.11,2.98s4.61-1.01,6.12-3.02c1.51-2.01,2.27-4.83,2.27-8.46,0-3.24-.77-5.87-2.31-7.89-1.54-2.01-3.59-3.02-6.14-3.02s-4.51.99-6.04,2.98c-1.53,1.99-2.3,4.83-2.3,8.53Z"/>
    <path class="cls-4" d="m438.78,95.74l.16,3.72c2.26-2.84,5.21-4.27,8.86-4.27,6.25,0,9.41,3.53,9.46,10.58v19.55h-5.06v-19.58c-.02-2.13-.51-3.71-1.46-4.73-.96-1.02-2.45-1.53-4.47-1.53-1.64,0-3.08.44-4.32,1.31-1.24.88-2.21,2.02-2.9,3.45v21.08h-5.06v-29.59h4.79Z"/>
    <path class="cls-4" d="m504.32,125.33h-26.09v-3.64l13.78-15.31c2.04-2.31,3.45-4.2,4.22-5.65.77-1.45,1.16-2.95,1.16-4.5,0-2.08-.63-3.78-1.89-5.11-1.26-1.33-2.94-2-5.03-2-2.52,0-4.47.72-5.87,2.15-1.39,1.43-2.09,3.42-2.09,5.97h-5.06c0-3.66,1.18-6.63,3.54-8.89,2.36-2.26,5.52-3.39,9.47-3.39,3.7,0,6.63.97,8.78,2.91,2.15,1.94,3.23,4.53,3.23,7.75,0,3.92-2.5,8.59-7.49,14l-10.66,11.57h19.99v4.13Z"/>
    <path class="cls-4" d="m534.64,108.35c0,5.92-1.01,10.33-3.04,13.21-2.02,2.88-5.19,4.32-9.49,4.32s-7.39-1.41-9.43-4.22c-2.04-2.82-3.1-7.02-3.17-12.62v-6.75c0-5.85,1.01-10.2,3.04-13.04s5.2-4.27,9.52-4.27,7.44,1.37,9.46,4.12c2.02,2.74,3.06,6.98,3.12,12.7v6.56Zm-5.06-6.92c0-4.28-.6-7.41-1.8-9.37-1.2-1.96-3.11-2.94-5.71-2.94s-4.48.98-5.66,2.93c-1.19,1.95-1.8,4.95-1.83,9v8.09c0,4.3.62,7.48,1.87,9.53,1.25,2.05,3.14,3.08,5.67,3.08s4.35-.97,5.56-2.9c1.21-1.93,1.85-4.98,1.9-9.13v-8.29Z"/>
    <path class="cls-4" d="m567.21,125.33h-26.09v-3.64l13.78-15.31c2.04-2.31,3.45-4.2,4.22-5.65.77-1.45,1.16-2.95,1.16-4.5,0-2.08-.63-3.78-1.89-5.11-1.26-1.33-2.94-2-5.03-2-2.52,0-4.47.72-5.87,2.15-1.39,1.43-2.09,3.42-2.09,5.97h-5.06c0-3.66,1.18-6.63,3.54-8.89,2.36-2.26,5.52-3.39,9.47-3.39,3.7,0,6.63.97,8.78,2.91,2.15,1.94,3.23,4.53,3.23,7.75,0,3.92-2.5,8.59-7.49,14l-10.66,11.57h19.99v4.13Z"/>
    <path class="cls-4" d="m579.93,102.96h3.8c2.39-.04,4.27-.67,5.63-1.89,1.37-1.22,2.05-2.87,2.05-4.95,0-4.67-2.32-7-6.97-7-2.19,0-3.93.62-5.24,1.87-1.3,1.25-1.96,2.9-1.96,4.96h-5.06c0-3.15,1.15-5.77,3.46-7.86,2.31-2.09,5.24-3.13,8.79-3.13,3.75,0,6.7.99,8.83,2.98,2.13,1.99,3.2,4.75,3.2,8.29,0,1.73-.56,3.41-1.68,5.03-1.12,1.62-2.65,2.83-4.58,3.64,2.19.69,3.88,1.84,5.07,3.45,1.19,1.6,1.79,3.56,1.79,5.88,0,3.57-1.17,6.41-3.5,8.5-2.33,2.1-5.37,3.14-9.11,3.14s-6.78-1.01-9.12-3.04c-2.34-2.02-3.51-4.69-3.51-8.01h5.09c0,2.1.68,3.77,2.05,5.03s3.2,1.89,5.5,1.89c2.44,0,4.31-.64,5.61-1.91,1.29-1.28,1.94-3.11,1.94-5.5s-.71-4.09-2.13-5.33c-1.42-1.24-3.47-1.88-6.15-1.91h-3.8v-4.13Z"/>
  </g>
</svg>